<?xml version="1.0" standalone="no"?>
<!DOCTYPE svg PUBLIC "-//W3C//DTD SVG 1.1//EN" "http://www.w3.org/Graphics/SVG/1.1/DTD/svg11.dtd" >
<svg xmlns="http://www.w3.org/2000/svg" xmlns:xlink="http://www.w3.org/1999/xlink" version="1.1">
<metadata></metadata>
<defs>
<font id="pp_neue_montreal_ttbold" horiz-adv-x="1175" >
<font-face units-per-em="2048" ascent="1638" descent="-410" />
<missing-glyph horiz-adv-x="389" />
<glyph horiz-adv-x="0" />
<glyph horiz-adv-x="682" />
<glyph unicode="&#xd;" horiz-adv-x="389" />
<glyph unicode=" "  horiz-adv-x="389" />
<glyph unicode="&#x09;" horiz-adv-x="389" />
<glyph unicode="&#xa0;" horiz-adv-x="389" />
<glyph unicode="!" horiz-adv-x="573" d="M113 1145v319h348v-319l-92 -666h-164zM133 0v311h311v-311h-311z" />
<glyph unicode="&#x22;" horiz-adv-x="905" d="M104 1464h287l-41 -551h-205zM514 1464h287l-41 -551h-205z" />
<glyph unicode="#" horiz-adv-x="1277" d="M70 305l51 246h155l54 252h-156l53 246h156l78 366h246l-78 -366h184l78 366h246l-78 -366h149l-53 -246h-149l-54 -252h150l-51 -246h-152l-65 -305h-246l65 305h-184l-66 -305h-245l65 305h-153zM522 551h185l53 252h-185z" />
<glyph unicode="$" horiz-adv-x="1310" d="M53 463h328q4 -106 62.5 -155.5t140.5 -63.5v331q-10 4 -20.5 7.5t-20.5 5.5q-127 39 -228.5 89t-160 130t-58.5 203q0 186 132 297.5t356 126.5v143h137v-143q231 -20 360 -143.5t138 -313.5h-328q-23 152 -170 184v-305q102 -31 195.5 -64.5t166 -84t114.5 -124 t42 -182.5q0 -186 -134 -302.5t-384 -127.5v-176h-137v180q-240 20 -385.5 145.5t-145.5 342.5zM426 1036q0 -53 38 -81.5t120 -55.5v268q-70 -8 -114 -39t-44 -92zM721 238q98 4 143 40t45 93q0 66 -53 102.5t-135 63.5v-299z" />
<glyph unicode="%" horiz-adv-x="1835" d="M27 1036q0 188 111.5 300t299.5 112t299 -111.5t111 -300.5q0 -188 -111 -298.5t-299 -110.5t-299.5 110.5t-111.5 298.5zM334 1036q0 -106 24.5 -155.5t79.5 -49.5q53 0 78 49.5t25 155.5q0 109 -24.5 158t-78.5 49q-55 0 -79.5 -49t-24.5 -158zM416 0l784 1415h219 l-784 -1415h-219zM987 379q0 188 110.5 298.5t299.5 110.5q188 0 299.5 -110.5t111.5 -298.5t-111.5 -300t-299.5 -112t-299 111.5t-111 300.5zM1294 379q0 -109 25 -158t78 -49q55 0 79.5 49t24.5 158t-24.5 157t-79.5 48q-53 0 -78 -48.5t-25 -156.5z" />
<glyph unicode="&#x26;" horiz-adv-x="1456" d="M61 365q0 111 47.5 185.5t122 126.5t160.5 95q-76 94 -125 174t-49 176q0 94 51 179t149.5 140.5t239.5 55.5q135 2 233.5 -47t153 -133t54.5 -189q0 -127 -85 -214t-243 -169l213 -235q29 55 48.5 113.5t29.5 109.5h287q-14 -113 -56.5 -227.5t-111.5 -214.5l260 -291 h-410l-67 82q-82 -53 -184.5 -84t-223.5 -31q-160 0 -270.5 52.5t-167 142.5t-56.5 203zM410 428q0 -74 49 -127t155 -53q49 0 92.5 12t81.5 33l-266 321q-70 -51 -91 -98t-21 -88zM524 1106q0 -45 28 -94t79 -109q72 47 116 98.5t44 108.5q0 47 -31 83t-103 36 q-68 0 -100.5 -36t-32.5 -87z" />
<glyph unicode="'" horiz-adv-x="495" d="M104 1464h287l-41 -551h-205z" />
<glyph unicode="(" horiz-adv-x="739" d="M137 649q0 193 38 365t98.5 316.5t123.5 246.5h287q-82 -186 -140.5 -414.5t-58.5 -513.5q0 -279 58.5 -511t140.5 -419h-287q-63 104 -123.5 251t-98.5 321t-38 358z" />
<glyph unicode=")" horiz-adv-x="739" d="M55 -281q82 186 140.5 414.5t58.5 513.5q0 279 -58.5 511.5t-140.5 418.5h287q66 -102 125 -249.5t97 -320.5t38 -360q0 -190 -38 -363t-97 -317t-125 -248h-287z" />
<glyph unicode="*" horiz-adv-x="870" d="M51 1110l64 195l219 -91v250h205v-250l217 91l63 -195l-229 -59l145 -197l-166 -121l-135 207l-135 -207l-166 121l146 197z" />
<glyph unicode="+" horiz-adv-x="1200" d="M102 532v283h357v371h282v-371h357v-283h-357v-370h-282v370h-357z" />
<glyph unicode="," horiz-adv-x="444" d="M61 0v311h312v-311q0 -137 -80 -228t-232 -114v143q66 10 107 55.5t41 143.5h-148z" />
<glyph unicode="-" horiz-adv-x="679" d="M61 377v280h557v-280h-557z" />
<glyph unicode="." horiz-adv-x="434" d="M61 0v311h312v-311h-312z" />
<glyph unicode="/" horiz-adv-x="923" d="M45 0l567 1464h267l-568 -1464h-266z" />
<glyph unicode="0" horiz-adv-x="1382" d="M70 707q0 211 67.5 378.5t205.5 265t349 97.5q213 0 350.5 -97.5t204 -265t66.5 -378.5t-66.5 -378t-204 -264.5t-350.5 -97.5q-211 0 -349 97.5t-205.5 264.5t-67.5 378zM432 707q0 -127 22.5 -230.5t80 -163t157.5 -59.5q102 0 157.5 59.5t78 163t22.5 230.5 q0 129 -22.5 231t-77.5 162.5t-158 60.5q-100 0 -157.5 -60.5t-80 -162.5t-22.5 -231z" />
<glyph unicode="1" horiz-adv-x="872" d="M74 891v272q100 0 181 27t130 83t49 142h287v-1415h-348v950q-41 -33 -123 -46t-176 -13z" />
<glyph unicode="2" horiz-adv-x="1210" d="M45 0q0 113 29.5 197t88 155.5t146.5 144t203 158.5t190.5 164t75.5 174q0 82 -40 128t-124 46q-100 0 -156.5 -61.5t-56.5 -206.5h-335q0 250 136 399.5t423 149.5q154 0 268.5 -51t178 -147.5t63.5 -231.5q0 -104 -38 -189.5t-100.5 -156t-137.5 -131t-148 -113.5 q-49 -39 -95.5 -74t-80.5 -69v-4h600v-281h-1090z" />
<glyph unicode="3" horiz-adv-x="1265" d="M49 500h336q0 -123 56.5 -187.5t191.5 -64.5q115 0 163 45t48 127q0 102 -65.5 144t-186.5 42h-72v240h64q94 0 156.5 42t62.5 132q0 147 -174 147q-82 0 -142.5 -42t-60.5 -144h-336q0 135 65.5 240.5t188.5 166t293 60.5q143 0 262 -45t189.5 -132t70.5 -212 q0 -115 -59.5 -189.5t-145.5 -119.5v-5q131 -41 188.5 -129t57.5 -210q0 -215 -150.5 -327t-404.5 -112q-285 0 -440.5 139.5t-155.5 393.5z" />
<glyph unicode="4" horiz-adv-x="1316" d="M63 299v342l642 774h348v-835h209v-281h-209v-299h-348v299h-642zM319 580h386v456z" />
<glyph unicode="5" horiz-adv-x="1275" d="M68 438h335q8 -76 65.5 -133t168.5 -57q98 0 156.5 59.5t58.5 175.5q0 113 -54.5 175.5t-166.5 62.5q-57 0 -114.5 -24.5t-100.5 -78.5h-328l164 797h895v-280h-658l-53 -271v-4q59 47 133 74t170 27q211 0 340 -127t129 -355q0 -170 -72.5 -283.5t-196.5 -171 t-282 -57.5q-287 0 -434 131t-155 340z" />
<glyph unicode="6" horiz-adv-x="1306" d="M72 688q0 256 75.5 425t213 252t317.5 83q137 0 247.5 -50t183.5 -138.5t95 -202.5h-352q-4 25 -22.5 55.5t-55.5 53t-102 22.5q-131 0 -189.5 -89t-62.5 -229v-22l8 -6q55 53 134 88t196 35q147 0 256.5 -63.5t170 -172t60.5 -244.5q0 -156 -67.5 -272.5t-192.5 -181 t-295 -64.5q-174 0 -294 60.5t-190.5 162t-102 231.5t-31.5 267zM428 467q0 -102 63.5 -171t178.5 -69t177 69t62 171t-62.5 170t-176.5 68q-115 0 -178.5 -68t-63.5 -170z" />
<glyph unicode="7" horiz-adv-x="1157" d="M55 1135v280h1039v-260q-160 -131 -258.5 -317.5t-142.5 -402.5t-44 -435h-368q0 170 33.5 337t94 317.5t141.5 273.5t175 202v5h-670z" />
<glyph unicode="8" horiz-adv-x="1290" d="M59 406q0 96 39 164.5t99.5 115.5t128.5 76v4q-49 27 -96.5 65.5t-78 96t-30.5 137.5q0 123 70.5 208t189.5 130t264 45t264 -45t189.5 -130t70.5 -208q0 -80 -30.5 -137.5t-77.5 -96t-96 -65.5v-4q68 -29 128 -76t99 -115.5t39 -164.5q0 -145 -79 -242.5t-212 -147 t-295 -49.5t-295 49.5t-212 146.5t-79 243zM416 438q0 -86 58 -148.5t171 -62.5t171 62.5t58 148.5q0 84 -58 145.5t-171 61.5t-171 -61.5t-58 -145.5zM436 1034q0 -72 51.5 -124t157.5 -52q109 0 159 52.5t50 123.5q0 70 -50 122t-159 52q-106 0 -157.5 -52t-51.5 -122z " />
<glyph unicode="9" horiz-adv-x="1306" d="M61 930q0 158 68 273.5t192.5 180t294.5 64.5q176 0 295 -60.5t189.5 -162t102.5 -230.5t32 -268q0 -256 -76 -425t-212 -252t-318 -83q-137 0 -248 50.5t-183.5 139.5t-95.5 201h353q6 -25 23.5 -55.5t55 -53t101.5 -22.5q133 0 191.5 90.5t60.5 227.5v22l-8 6 q-55 -51 -134 -86.5t-196 -35.5q-145 0 -256 63.5t-171.5 172t-60.5 243.5zM397 948q0 -100 63.5 -168.5t176.5 -68.5q115 0 178.5 68.5t63.5 168.5q0 102 -63.5 171t-178.5 69q-113 0 -176.5 -68.5t-63.5 -171.5z" />
<glyph unicode=":" horiz-adv-x="458" d="M73 0v311h312v-311h-312zM73 635v311h312v-311h-312z" />
<glyph unicode=";" horiz-adv-x="458" d="M73 0v311h312v-311q0 -137 -80 -228t-232 -114v143q66 10 107 55.5t41 143.5h-148zM73 635v311h312v-311h-312z" />
<glyph unicode="&#x3c;" horiz-adv-x="1069" d="M102 479v307l844 353v-281l-567 -223v-4l567 -223v-281z" />
<glyph unicode="=" horiz-adv-x="1169" d="M101 315v283h966v-283h-966zM101 749v283h966v-283h-966z" />
<glyph unicode="&#x3e;" horiz-adv-x="1069" d="M123 127v281l567 223v4l-567 223v281l844 -353v-307z" />
<glyph unicode="?" horiz-adv-x="1138" d="M49 979q0 143 61.5 261t183.5 187.5t306 69.5q143 0 253 -50t173.5 -139t63.5 -208q0 -123 -57.5 -204t-166.5 -140q-72 -39 -114.5 -74t-62 -81t-19.5 -122h-271q0 96 6.5 154.5t25 97.5t57 75t104.5 83q84 61 116.5 100t32.5 103q0 47 -32.5 86t-118.5 39 q-96 0 -144.5 -61.5t-48.5 -176.5h-348zM381 0v311h311v-311h-311z" />
<glyph unicode="@" horiz-adv-x="1904" d="M92 598q0 188 65.5 347t185.5 275.5t286 180t366 63.5q201 0 355.5 -62.5t259 -170t158 -246.5t53.5 -295q0 -174 -59.5 -289.5t-158 -173t-219.5 -57.5q-100 0 -172.5 48t-99.5 138h-4q-20 -78 -88 -132t-168 -54q-141 0 -238.5 105.5t-97.5 312.5q0 150 51 254 t136 160.5t190 56.5q92 0 144.5 -40t78.5 -97h4l15 122h266l-66 -514q-12 -100 13.5 -138t83.5 -38q84 0 134 88t50 250q0 182 -74 313.5t-210 203t-324 71.5q-211 0 -367 -86t-242 -239.5t-86 -356.5q0 -188 77 -331.5t224.5 -223.5t358.5 -80q80 0 168 14.5t182 51.5 l66 -162q-84 -45 -187.5 -66.5t-224.5 -21.5q-221 0 -387 63.5t-276.5 177t-166 262t-55.5 316.5zM793 582q0 -80 26.5 -133.5t102.5 -53.5q84 0 120.5 75t36.5 171t-27.5 144.5t-93.5 48.5q-76 0 -120.5 -67t-44.5 -185z" />
<glyph unicode="A" horiz-adv-x="1525" d="M18 0l557 1464h371l561 -1464h-403l-94 305h-502l-94 -305h-396zM592 586h336l-166 540h-4z" />
<glyph unicode="B" horiz-adv-x="1409" d="M123 0v1464h711q229 0 346.5 -90t117.5 -278q0 -135 -68.5 -208t-158.5 -104v-4q78 -12 142.5 -53t103.5 -112.5t39 -182.5q0 -156 -62.5 -251t-175 -138t-264.5 -43h-731zM492 301h256q115 0 173 36t58 138t-58.5 137t-172.5 35h-256v-346zM492 872h245q78 0 131.5 28 t53.5 118t-53.5 117.5t-131.5 27.5h-245v-291z" />
<glyph unicode="C" horiz-adv-x="1460" d="M61 727q0 225 81 398t240 272.5t390 99.5q201 0 338 -73.5t215 -203.5t94 -300h-377q-12 80 -42.5 142t-88 98t-155.5 36q-121 0 -190.5 -58.5t-98.5 -163t-29 -241.5t29 -242.5t98.5 -164t190.5 -58.5q98 0 156.5 36t88 99.5t41.5 145.5h377q-16 -168 -95 -299 t-219 -207t-343 -76q-231 0 -388 99.5t-235 271.5t-78 389z" />
<glyph unicode="D" horiz-adv-x="1486" d="M123 0v1464h649q305 0 479 -189.5t174 -543.5q0 -352 -163.5 -541.5t-468.5 -189.5h-670zM492 301h235q172 0 247 115.5t75 314.5q0 201 -75 316.5t-247 115.5h-235v-862z" />
<glyph unicode="E" horiz-adv-x="1316" d="M123 0v1464h1110v-301h-741v-260h638v-301h-638v-301h753v-301h-1122z" />
<glyph unicode="F" horiz-adv-x="1253" d="M123 0v1464h1089v-301h-720v-321h587v-301h-587v-541h-369z" />
<glyph unicode="G" horiz-adv-x="1546" d="M61 733q0 221 81 393t240 271.5t388 99.5q201 0 342 -70.5t221 -188.5t97 -259h-377q-12 51 -42 100t-87.5 83t-159.5 34q-121 0 -192.5 -58.5t-102.5 -163t-31 -241.5t32 -242.5t106.5 -164t201.5 -58.5t209 69t84 175h-278v266h659v-778h-264l-37 186h-4 q-51 -100 -155.5 -159.5t-266.5 -59.5q-209 0 -357.5 99.5t-227.5 272.5t-79 394z" />
<glyph unicode="H" horiz-adv-x="1484" d="M123 0v1464h369v-573h501v573h369v-1464h-369v590h-501v-590h-369z" />
<glyph unicode="I" horiz-adv-x="614" d="M123 0v1464h369v-1464h-369z" />
<glyph unicode="J" horiz-adv-x="1148" d="M33 487v123h327v-123q0 -104 32 -161.5t122 -57.5t122 57.5t32 161.5v977h368v-977q0 -106 -22.5 -200t-77.5 -166t-152.5 -113t-248.5 -41q-150 0 -248.5 41t-153.5 113t-77.5 166t-22.5 200z" />
<glyph unicode="K" horiz-adv-x="1470" d="M123 0v1464h369v-624l524 624h395l-551 -641l592 -823h-430l-379 571l-151 -176v-395h-369z" />
<glyph unicode="L" horiz-adv-x="1183" d="M123 0v1464h369v-1163h651v-301h-1020z" />
<glyph unicode="M" horiz-adv-x="1753" d="M123 0v1464h450l301 -934h5l301 934h450v-1464h-348v911h-4l-272 -911h-258l-273 911h-4v-911h-348z" />
<glyph unicode="N" horiz-adv-x="1499" d="M123 0v1464h369l512 -870h4v870h368v-1464h-368l-512 870h-4v-870h-369z" />
<glyph unicode="O" horiz-adv-x="1572" d="M61 733q0 221 84 393t247 271.5t394 99.5t393 -99.5t247 -271.5t85 -393t-85 -394t-247 -272.5t-393 -99.5t-394 99.5t-247 272.5t-84 394zM438 733q0 -127 31 -233.5t107.5 -169t209.5 -62.5t209 62.5t108 169t32 233.5t-32 232.5t-107.5 168t-209.5 62.5 q-133 0 -209.5 -62.5t-107.5 -168t-31 -232.5z" />
<glyph unicode="P" horiz-adv-x="1366" d="M123 0v1464h711q229 0 362 -117.5t133 -349.5q0 -229 -133 -348t-362 -119h-342v-530h-369zM492 831h256q96 0 150 37t54 129t-54 129t-150 37h-256v-332z" />
<glyph unicode="Q" horiz-adv-x="1572" d="M61 733q0 221 84 393t247 271.5t394 99.5t393 -99.5t247 -271.5t85 -393q0 -340 -188 -547l154 -155l-179 -185l-184 187q-144 -66 -328 -66q-231 0 -394 99.5t-247 272.5t-84 394zM438 733q0 -127 31 -233.5t107.5 -169t209.5 -62.5q23 0 44.5 2t41.5 6l-174 177 l179 184l200 -203q31 61 44.5 138t13.5 161q0 127 -32 232.5t-107.5 168t-209.5 62.5q-133 0 -209.5 -62.5t-107.5 -168t-31 -232.5z" />
<glyph unicode="R" horiz-adv-x="1421" d="M123 0v1464h690q244 0 383 -108.5t139 -308.5q0 -154 -79.5 -245t-217.5 -122v-4q92 -16 145.5 -68.5t81 -124t38 -149.5t14.5 -147.5t11 -114.5t28 -52v-20h-383q-18 16 -22.5 58t-5.5 100.5t-7 120t-27.5 113.5t-66.5 85t-123 33h-229v-510h-369zM492 811h249 q111 0 168.5 42t57.5 134t-57.5 134t-168.5 42h-249v-352z" />
<glyph unicode="S" horiz-adv-x="1325" d="M33 498h373q0 -127 84.5 -180.5t209.5 -53.5q102 0 154.5 37t52.5 94q0 63 -45 99t-122.5 63t-180.5 57q-127 37 -237.5 89.5t-177 135.5t-66.5 214q0 160 75.5 258t203.5 142t286 44q172 0 310.5 -57.5t222.5 -164t88 -255.5h-373q-12 84 -76.5 132t-171.5 48 q-82 0 -135 -28.5t-53 -92.5q0 -74 64.5 -109.5t203.5 -76.5q104 -31 203.5 -64.5t180.5 -84t129 -125t48 -189.5q0 -211 -152.5 -337t-426.5 -126q-190 0 -343 62.5t-241 181.5t-88 287z" />
<glyph unicode="T" horiz-adv-x="1316" d="M49 1163v301h1219v-301h-424v-1163h-369v1163h-426z" />
<glyph unicode="U" horiz-adv-x="1449" d="M113 528v936h368v-936q0 -143 61.5 -201.5t182.5 -58.5t182.5 58.5t61.5 201.5v936h368v-936q0 -272 -140 -416.5t-472 -144.5t-472 144.5t-140 416.5z" />
<glyph unicode="V" horiz-adv-x="1376" d="M12 1464h404l276 -1026h4l279 1026h389l-475 -1464h-389z" />
<glyph unicode="W" horiz-adv-x="1966" d="M20 1464h369l189 -993h4l227 993h348l227 -993h5l188 993h369l-373 -1464h-369l-219 913h-4l-219 -913h-369z" />
<glyph unicode="X" horiz-adv-x="1456" d="M27 0l485 748l-444 716h389l268 -446h4l270 446h390l-445 -712l486 -752h-410l-291 475h-4l-289 -475h-409z" />
<glyph unicode="Y" horiz-adv-x="1394" d="M16 1464h398l284 -622h4l287 622h389l-493 -923v-541h-369v541z" />
<glyph unicode="Z" horiz-adv-x="1290" d="M74 0v301l669 858v4h-628v301h1079v-301l-670 -858v-4h690v-301h-1140z" />
<glyph unicode="[" horiz-adv-x="856" d="M139 -281v1858h629v-281h-281v-1296h281v-281h-629z" />
<glyph unicode="\" horiz-adv-x="923" d="M45 1464h266l568 -1464h-267z" />
<glyph unicode="]" horiz-adv-x="856" d="M88 0h281v1296h-281v281h629v-1858h-629v281z" />
<glyph unicode="^" horiz-adv-x="995" d="M33 901l342 563h246l342 -563h-308l-157 277h-2l-156 -277h-307z" />
<glyph unicode="_" horiz-adv-x="1146" d="M41 -72h1065v-280h-1065v280z" />
<glyph unicode="`" horiz-adv-x="620" d="M102 1485h328l109 -311h-246z" />
<glyph unicode="a" horiz-adv-x="1146" d="M41 274q0 109 54.5 177.5t145.5 108.5t201 63q57 12 122 25.5t110 41t45 78.5q0 43 -34 68.5t-105 25.5q-90 0 -134.5 -37t-52.5 -114h-311q6 100 59.5 185t165 136t287.5 51q213 0 327.5 -97t114.5 -339v-405q0 -41 7.5 -60.5t31.5 -19.5h12.5t14.5 2v-156 q-49 -8 -97.5 -13t-82.5 -5q-98 0 -141.5 35.5t-55.5 101.5h-4q-55 -70 -143 -115t-203 -45q-154 0 -244 84t-90 223zM377 309q0 -59 36 -87.5t99 -28.5q98 0 152.5 70.5t54.5 160.5v88q-33 -12 -73 -22.5t-105 -26.5q-90 -20 -127 -59t-37 -95z" />
<glyph unicode="b" horiz-adv-x="1218" d="M82 0v1464h328v-520h4q20 29 63 60.5t103.5 54t136.5 22.5q139 0 241.5 -67.5t159 -192.5t56.5 -297t-56.5 -297t-159 -192.5t-241.5 -67.5q-76 0 -136.5 22.5t-103.5 55t-63 59.5h-4v-104h-328zM416 524q0 -154 55 -232.5t156 -78.5q100 0 155.5 79t55.5 232 q0 154 -55.5 233t-155.5 79t-155.5 -79t-55.5 -233z" />
<glyph unicode="c" horiz-adv-x="1128" d="M45 524q0 164 65.5 290t185.5 197.5t282 71.5q152 0 262 -55t174.5 -151.5t77.5 -219.5h-330q-4 43 -21.5 84t-54.5 69t-102 28q-100 0 -151.5 -83t-51.5 -231q0 -147 50 -230t153 -83q96 0 133 56.5t45 127.5h330q-8 -125 -72 -222t-173.5 -152.5t-260.5 -55.5 q-166 0 -287 72t-187.5 197.5t-66.5 289.5z" />
<glyph unicode="d" horiz-adv-x="1218" d="M45 524q0 172 56.5 297t158.5 192.5t242 67.5q76 0 137 -22.5t103.5 -54t62.5 -60.5h4v520h328v-1464h-328v104h-4q-20 -27 -62.5 -59.5t-103.5 -55t-137 -22.5q-139 0 -241.5 67.5t-159 192.5t-56.5 297zM381 524q0 -154 55.5 -232.5t155.5 -78.5t155.5 79t55.5 232 q0 154 -55.5 233t-155.5 79t-155.5 -79t-55.5 -233z" />
<glyph unicode="e" d="M45 524q0 154 62.5 281t184.5 202.5t298 75.5q268 0 402 -153.5t134 -444.5v-49h-753q2 -109 67.5 -167t157.5 -58q88 0 130 34t56 72h334q-45 -160 -176 -256t-352 -96q-170 0 -292 72t-187.5 197.5t-65.5 289.5zM375 639h422q0 102 -55.5 154.5t-151.5 52.5 q-94 0 -151.5 -52.5t-63.5 -154.5z" />
<glyph unicode="f" horiz-adv-x="724" d="M29 803v246h141v73q0 193 78 277t246 84q86 0 186 -21v-231q-29 4 -45.5 5t-36.5 1q-43 0 -71.5 -19.5t-28.5 -103.5v-65h182v-246h-182v-803h-328v803h-141z" />
<glyph unicode="g" horiz-adv-x="1185" d="M45 565q0 152 54.5 268.5t153.5 182t232 65.5q115 0 185.5 -48t101.5 -89h4v105h328v-924q0 -186 -64.5 -296t-181.5 -157t-278 -47q-162 0 -269.5 50.5t-167 128t-77.5 161.5h331q16 -43 56.5 -73.5t126.5 -30.5q111 0 153.5 62.5t42.5 201.5v61h-4q-31 -41 -101.5 -89 t-185.5 -48q-133 0 -232 65.5t-153.5 182.5t-54.5 268zM381 565q0 -127 47 -198.5t147 -71.5t147.5 71.5t47.5 198.5t-47.5 199t-147.5 72t-147 -72t-47 -199z" />
<glyph unicode="h" d="M82 0v1464h328v-567h4q41 72 122.5 128t221.5 56q152 0 246 -96t94 -276v-709h-328v604q0 119 -41 165t-123 46q-94 0 -145 -50t-51 -159v-606h-328z" />
<glyph unicode="i" horiz-adv-x="491" d="M82 0v1049h328v-1049h-328zM82 1174v290h328v-290h-328z" />
<glyph unicode="j" horiz-adv-x="495" d="M-96 -104q25 -2 40 -4.5t36 -2.5q47 0 76.5 20.5t29.5 104.5v1035h328v-1018q0 -193 -74 -299.5t-254 -106.5q-88 0 -182 21v250zM86 1174v290h328v-290h-328z" />
<glyph unicode="k" horiz-adv-x="1165" d="M82 0v1464h328v-805l350 390h348l-371 -394l414 -655h-379l-248 432l-114 -121v-311h-328z" />
<glyph unicode="l" horiz-adv-x="491" d="M82 0v1464h328v-1464h-328z" />
<glyph unicode="m" horiz-adv-x="1785" d="M82 0v1049h328v-152h4q41 72 125 128t202 56q102 0 173 -51t102 -133h4q68 78 146.5 131t205.5 53q158 0 247 -96t89 -276v-709h-332v604q0 119 -30.5 165t-118.5 46q-78 0 -124 -50t-46 -159v-606h-328v604q0 119 -30.5 165t-118.5 46q-76 0 -123 -50t-47 -159v-606 h-328z" />
<glyph unicode="n" d="M82 0v1049h328v-152h4q41 72 122.5 128t221.5 56q152 0 246 -96t94 -276v-709h-328v604q0 119 -41 165t-123 46q-94 0 -145 -50t-51 -159v-606h-328z" />
<glyph unicode="o" horiz-adv-x="1210" d="M45 522q0 166 67.5 292t193.5 197.5t302 71.5q174 0 298 -69.5t191.5 -194.5t67.5 -291t-67.5 -292.5t-193.5 -198.5t-302 -72q-172 0 -297 70.5t-192.5 195.5t-67.5 291zM377 524q0 -152 59 -232.5t170 -80.5q109 0 168.5 81t59.5 232q0 152 -59.5 233t-168.5 81 q-111 0 -170 -81t-59 -233z" />
<glyph unicode="p" horiz-adv-x="1218" d="M82 -362v1411h328v-105h4q20 29 63 60.5t103.5 54t136.5 22.5q139 0 241.5 -67.5t159 -192.5t56.5 -297t-56.5 -297t-159 -192.5t-241.5 -67.5q-76 0 -136.5 22.5t-103.5 55t-63 59.5h-4v-466h-328zM416 524q0 -154 55 -232.5t156 -78.5q100 0 155.5 79t55.5 232 q0 154 -55.5 233t-155.5 79t-155.5 -79t-55.5 -233z" />
<glyph unicode="q" horiz-adv-x="1218" d="M45 524q0 172 56.5 297t158.5 192.5t242 67.5q76 0 137 -22.5t103 -54t63 -60.5h4v105h328v-1411h-328v466h-4q-20 -27 -62.5 -59.5t-103.5 -55t-137 -22.5q-139 0 -241.5 67.5t-159 192.5t-56.5 297zM381 524q0 -154 55.5 -232.5t155.5 -78.5t155.5 79t55.5 232 q0 154 -55.5 233t-155.5 79t-155.5 -79t-55.5 -233z" />
<glyph unicode="r" horiz-adv-x="798" d="M82 0v1049h328v-172h4q39 84 104.5 132t151.5 48q23 0 43 -1t47 -7v-287q-39 6 -68 6q-74 0 -138.5 -30.5t-104 -93t-39.5 -157.5v-487h-328z" />
<glyph unicode="s" horiz-adv-x="1044" d="M27 348h307q14 -155 203 -155h2q139 0 139 90q0 47 -33 70.5t-90 38t-133 30.5q-92 23 -178 58.5t-141.5 100t-55.5 171.5q0 147 119 238t340 91q168 0 271.5 -50t152.5 -131t53 -173h-307q-8 63 -45 96t-119 33q-68 0 -98.5 -22.5t-30.5 -61.5q0 -51 50 -67t169 -43 q104 -23 198.5 -59t154 -104.5t59.5 -191.5q0 -164 -121 -252t-348 -88q-182 0 -295 52.5t-166 139.5t-57 189z" />
<glyph unicode="t" horiz-adv-x="733" d="M20 803v246h146v292h328v-292h182v-246h-182v-455q0 -84 29.5 -103.5t76.5 -19.5q23 0 41 2t47 6v-231q-51 -12 -98 -17t-96 -5q-172 0 -250 83.5t-78 276.5v463h-146z" />
<glyph unicode="u" d="M78 340v709h328v-605q0 -119 40.5 -165t122.5 -46q94 0 145.5 50.5t51.5 158.5v607h328v-1049h-328v152h-4q-41 -72 -123 -128.5t-221 -56.5q-152 0 -246 96.5t-94 276.5z" />
<glyph unicode="v" horiz-adv-x="1114" d="M14 1049h332l213 -693h4l213 693h324l-363 -1049h-360z" />
<glyph unicode="w" horiz-adv-x="1650" d="M20 1049h328l158 -639h4l176 639h287l176 -639h6l158 639h317l-293 -1049h-307l-203 664h-4l-202 -664h-308z" />
<glyph unicode="x" horiz-adv-x="1146" d="M14 0l361 535l-320 514h348l168 -304h4l168 304h349l-320 -514l361 -535h-369l-189 324h-4l-188 -324h-369z" />
<glyph unicode="y" horiz-adv-x="1157" d="M14 1049h338l246 -691h4l225 691h324l-383 -1051q-43 -119 -97.5 -200t-131 -120.5t-193.5 -39.5q-53 0 -98 5t-98 15v250q27 -2 49 -4t49 -2q33 0 69.5 5t68.5 28.5t46 78.5z" />
<glyph unicode="z" horiz-adv-x="1042" d="M51 0v236l510 563v4h-469v246h879v-236l-510 -563v-4h530v-246h-940z" />
<glyph unicode="{" horiz-adv-x="856" d="M72 506v282q84 -2 111.5 27t27.5 107v258q0 172 58.5 257t170 112.5t273.5 27.5h55v-281h-55q-59 0 -106.5 -38.5t-47.5 -151.5v-238q0 -88 -33.5 -138t-109.5 -81v-4q76 -31 109.5 -81t33.5 -140v-225q0 -119 47 -159t107 -40h55v-281h-55q-162 0 -273.5 30t-170 117 t-58.5 259v250q0 76 -27.5 103.5t-111.5 27.5z" />
<glyph unicode="|" horiz-adv-x="503" d="M139 -283v1827h226v-1827h-226z" />
<glyph unicode="}" horiz-adv-x="856" d="M88 0h55q59 0 106.5 39t47.5 151v238q0 88 34 138t109 81v4q-76 31 -109.5 82t-33.5 139v226q0 119 -47 158.5t-107 39.5h-55v281h55q162 0 273.5 -29.5t170 -117t58.5 -259.5v-249q0 -76 27.5 -103.5t111.5 -27.5v-283q-84 2 -111.5 -26.5t-27.5 -106.5v-258 q0 -172 -58.5 -257t-170 -113t-273.5 -28h-55v281z" />
<glyph unicode="~" horiz-adv-x="962" d="M70 489q0 358 243 359q70 0 117 -23.5t87 -46t87 -22.5q51 0 67.5 29.5t16.5 62.5h205q0 -358 -244 -359q-70 0 -117 23t-86.5 46.5t-87.5 23.5q-51 0 -67.5 -29t-16.5 -64h-204z" />
<glyph unicode="&#xa1;" horiz-adv-x="573" d="M113 53l92 666h164l92 -666v-319h-348v319zM129 887v311h311v-311h-311z" />
<glyph unicode="&#xa2;" horiz-adv-x="1155" d="M45 745q0 154 58.5 275t165 195.5t249.5 87.5v143h144v-146q190 -23 300.5 -139.5t129.5 -281.5h-330q-6 49 -26.5 97t-73.5 68v-598q51 23 72.5 69t27.5 101h330q-10 -170 -124 -286.5t-306 -139.5v-180h-144v180q-145 14 -251.5 88t-164 195t-57.5 272zM381 745 q0 -121 34 -199.5t103 -103.5v607q-70 -25 -103.5 -104t-33.5 -200z" />
<glyph unicode="&#xa3;" horiz-adv-x="1241" d="M57 254q84 53 124 125t44 160h-147v217h104q-27 59 -55.5 119.5t-28.5 148.5q0 68 24.5 140.5t84 134t163 99.5t259.5 38q199 0 319.5 -65.5t177 -181.5t56.5 -271h-348q0 115 -48.5 176t-150.5 61t-145.5 -49t-43.5 -121q0 -68 29 -121t57 -108h293v-217h-254 q-10 -63 -43.5 -122t-87.5 -112l2 -4q35 16 73 28.5t87 12.5q68 0 110 -17.5t85 -34t108 -16.5q72 0 117 21.5t84 54.5l129 -256q-74 -61 -145.5 -94t-178.5 -33q-86 0 -142 18.5t-101 41t-91.5 41t-107.5 18.5q-117 0 -256 -86z" />
<glyph unicode="&#xa4;" horiz-adv-x="1089" d="M49 393l123 123q-20 45 -31.5 94t-11.5 105q0 55 11.5 104t31.5 94l-123 123l174 174l123 -123q90 45 201 46q113 0 198 -43l121 120l174 -174l-120 -121q43 -88 43 -200q0 -109 -45 -199l122 -123l-174 -174l-121 121q-45 -20 -94 -31.5t-104 -11.5q-111 0 -201 45 l-123 -123zM375 715q0 -98 39 -166t133 -68q92 0 131 67.5t39 166.5q0 98 -39 165.5t-131 67.5q-94 0 -133 -67.5t-39 -165.5z" />
<glyph unicode="&#xa5;" horiz-adv-x="1355" d="M23 1405h389l264 -555h4l264 555h389l-434 -778h291v-138h-338v-118h338v-138h-338v-233h-348v233h-338v138h338v118h-338v138h291z" />
<glyph unicode="&#xa6;" horiz-adv-x="503" d="M139 -283v785h226v-785h-226zM139 786v758h226v-758h-226z" />
<glyph unicode="&#xa7;" horiz-adv-x="1327" d="M80 616q0 96 55 169t160 112q-41 45 -66.5 101.5t-25.5 131.5q0 160 117.5 259.5t347.5 99.5q160 0 264 -54.5t158.5 -146.5t58.5 -211h-328q-6 84 -38.5 135.5t-118.5 51.5q-66 0 -100 -29t-34 -76q0 -51 35 -85t92.5 -61.5t120.5 -60.5l133 -65q100 -49 181.5 -97.5 t129.5 -113t48 -166.5q0 -96 -55.5 -169t-159.5 -112q41 -45 66.5 -101t25.5 -132q0 -160 -118 -259t-347 -99q-160 0 -264.5 54t-157.5 147t-59 210h327q6 -84 39 -135t119 -51q66 0 99.5 28.5t33.5 75.5q0 51 -34.5 85t-91 62.5t-122.5 59.5l-133 66q-98 49 -180 97 t-130 113.5t-48 165.5zM406 651q0 -51 48 -85t160 -87l138 -65q20 -8 39.5 -18.5t39.5 -20.5q113 10 113 100q0 51 -48 85t-161 87l-137 66q-20 10 -39.5 19t-40.5 20q-113 -10 -112 -101z" />
<glyph unicode="&#xa8;" horiz-adv-x="946" d="M95 1174v291h329v-291h-329zM521 1174v291h329v-291h-329z" />
<glyph unicode="&#xa9;" horiz-adv-x="1714" d="M92 731q0 236 93.5 408t265.5 265t407 93q236 0 408 -93t265 -265t93 -408q0 -233 -93 -405t-265 -265.5t-408 -93.5t-407.5 93.5t-265 265.5t-93.5 405zM272 731q0 -287 155 -451.5t431 -164.5t431 164.5t155 451.5t-154.5 453t-431.5 166q-276 0 -431 -166t-155 -453z M424 731q0 135 52 238.5t148.5 163t229.5 59.5q188 0 294.5 -99.5t121.5 -250.5h-264q-6 53 -35 100t-111 47q-84 0 -125 -67.5t-41 -190.5q0 -121 41 -188.5t125 -67.5q82 0 110.5 46t35.5 104h264q-8 -152 -111 -252.5t-289 -100.5q-137 0 -237.5 58.5t-154.5 162 t-54 238.5z" />
<glyph unicode="&#xaa;" horiz-adv-x="985" d="M37 823q0 90 46 145.5t123 87t169 50.5q61 12 114.5 23.5t86 32t32.5 59.5q0 70 -110 69q-76 0 -113 -30.5t-43 -88.5h-270q6 82 51 152t140 113t245 43q182 0 278.5 -82t96.5 -285v-315q0 -27 5 -43.5t36 -16.5q4 0 16 2v-143q-82 -18 -147 -18q-88 0 -128 31.5 t-53 88.5h-2q-43 -51 -119 -88t-172 -37q-129 0 -205.5 69t-76.5 181zM330 852q0 -43 30.5 -62.5t75.5 -19.5q86 0 129 54.5t43 121.5v64q-29 -14 -59.5 -24.5t-87.5 -22.5q-131 -31 -131 -111z" />
<glyph unicode="&#xab;" horiz-adv-x="999" d="M82 371v321l385 318v-316l-229 -162v-4l229 -166v-307zM512 371v321l385 318v-316l-229 -162v-4l229 -166v-307z" />
<glyph unicode="&#xac;" horiz-adv-x="1114" d="M102 600v281h879v-607h-328v326h-551z" />
<glyph unicode="&#xad;" horiz-adv-x="679" d="M61 377v280h557v-280h-557z" />
<glyph unicode="&#xae;" horiz-adv-x="1128" d="M74 1001q0 143 65.5 255t177 176.5t248.5 64.5t248 -64.5t176.5 -176t65.5 -255.5q0 -141 -65.5 -253.5t-176.5 -177t-248 -64.5t-248.5 64.5t-177 177t-65.5 253.5zM190 1004q0 -182 100.5 -292t274.5 -110t273.5 109.5t99.5 292.5q0 182 -99.5 290.5t-273.5 108.5 t-274.5 -108.5t-100.5 -290.5zM350 737v543h256q90 0 141.5 -40t51.5 -118q0 -53 -30 -88t-79 -45v-2q51 -8 71.5 -45t26 -81t6.5 -77.5t13 -38.5v-8h-162q-10 8 -11 38t-3 66t-19.5 61.5t-60.5 25.5h-45v-191h-156zM506 1042h53q84 0 84 64q0 35 -21.5 49t-62.5 14h-53 v-127z" />
<glyph unicode="&#xaf;" horiz-adv-x="749" d="M82 1174v204h586v-204h-586z" />
<glyph unicode="&#xb0;" horiz-adv-x="778" d="M70 1184q0 84 38.5 155.5t110.5 114.5t170 43t170 -43t111 -114.5t39 -155.5t-39 -156t-111 -116t-170 -44t-170 44t-110.5 116t-38.5 156zM254 1184q0 -82 44 -117t91 -35t91 35t44 117t-44 115.5t-91 33.5t-91 -33.5t-44 -115.5z" />
<glyph unicode="&#xb1;" horiz-adv-x="1200" d="M102 4v283h996v-283h-996zM102 589v283h357v371h282v-371h357v-283h-357v-370h-282v370h-357z" />
<glyph unicode="&#xb2;" horiz-adv-x="790" d="M57 745q0 66 8.5 108t33 75.5t68.5 71.5t114 91q43 33 87 66.5t74.5 73.5t30.5 92q0 78 -74 77q-41 0 -68.5 -26.5t-27.5 -110.5h-237q0 158 82.5 247t259.5 89q145 0 230 -68.5t85 -189.5q0 -82 -33 -142.5t-81 -105.5t-91 -80q-25 -18 -44 -34.5t-32 -32.5v-2h285v-199 h-670z" />
<glyph unicode="&#xb3;" horiz-adv-x="819" d="M49 1059h238q0 -63 25.5 -94t90.5 -31q96 0 97 82q0 43 -31 63.5t-104 20.5h-29v164h24q53 0 85 19.5t32 62.5q0 35 -22.5 51t-53.5 16q-39 0 -65.5 -18.5t-26.5 -63.5h-235q0 121 91 201t247 80q88 0 160.5 -26.5t115.5 -79t43 -125.5q0 -70 -38 -114t-79 -69v-2 q74 -25 107 -75t33 -121q0 -129 -92 -195.5t-248 -66.5q-174 0 -269.5 82.5t-95.5 238.5z" />
<glyph unicode="&#xb4;" horiz-adv-x="620" d="M82 1174l108 311h369l-231 -311h-246z" />
<glyph unicode="&#xb5;" horiz-adv-x="1179" d="M82 -362v1411h328v-605q0 -119 41 -165t122 -46q94 0 145.5 50.5t51.5 158.5v607h328v-1049h-328v152h-4q-43 -88 -115.5 -130t-146.5 -42q-53 0 -94 20v-362h-328z" />
<glyph unicode="&#xb6;" horiz-adv-x="1267" d="M76 1069q0 184 110.5 289.5t317.5 105.5h641v-1464h-205v1280h-145v-1280h-205v686h-86q-207 0 -317.5 99.5t-110.5 283.5z" />
<glyph unicode="&#xb7;" horiz-adv-x="434" d="M61 356v311h312v-311h-312z" />
<glyph unicode="&#xb8;" horiz-adv-x="661" d="M104 -338l62 72q29 -14 60.5 -22.5t68.5 -8.5t65.5 13.5t28.5 45.5q0 55 -70 56q-20 0 -39.5 -4t-35.5 -11l-49 70l120 127h148l-80 -98v-4q84 10 151.5 -24t67.5 -114t-80 -123t-188 -43q-72 0 -129.5 19.5t-100.5 48.5z" />
<glyph unicode="&#xb9;" horiz-adv-x="643" d="M61 1245v188q90 0 157 37.5t65 105.5h217v-831h-262v518q-20 -8 -66.5 -13t-110.5 -5z" />
<glyph unicode="&#xba;" horiz-adv-x="1040" d="M45 1026q0 133 57.5 235.5t165 160t254.5 57.5t253 -57.5t163 -158t57 -233.5t-57 -236.5t-163.5 -162t-256.5 -58.5q-145 0 -251.5 57.5t-164 160t-57.5 235.5zM340 1028q0 -119 47 -180.5t133 -61.5t133 61.5t47 180.5q0 117 -48 177.5t-132 60.5q-86 0 -133 -61.5 t-47 -176.5z" />
<glyph unicode="&#xbb;" horiz-adv-x="999" d="M102 55v316l230 161v5l-230 165v308l385 -316v-321zM532 55v316l230 161v5l-230 165v308l386 -316v-321z" />
<glyph unicode="&#xbc;" horiz-adv-x="1767" d="M61 1133v188q90 0 157 37.5t65 105.5h217v-831h-262v518q-20 -8 -66.5 -13t-110.5 -5zM221 0l928 1464h287l-928 -1464h-287zM954 166v246l367 419h247v-469h123v-196h-123v-166h-247v166h-367zM1128 362h193v211z" />
<glyph unicode="&#xbd;" horiz-adv-x="1837" d="M61 1133v188q90 0 157 37.5t65 105.5h217v-831h-262v518q-20 -8 -66.5 -13t-110.5 -5zM237 0l928 1464h287l-928 -1464h-287zM1104 0q0 66 8.5 108t33 75.5t68.5 71.5t114 91q43 33 87 66.5t74.5 73.5t30.5 92q0 78 -74 77q-41 0 -68.5 -26.5t-27.5 -110.5h-237 q0 158 82.5 247t259.5 89q145 0 230 -68.5t85 -189.5q0 -82 -33 -142.5t-81 -105.5t-91 -80q-25 -18 -44 -34.5t-32 -32.5v-2h285v-199h-670z" />
<glyph unicode="&#xbe;" horiz-adv-x="1914" d="M49 934h238q0 -63 25.5 -94t90.5 -31q96 0 97 82q0 43 -31 63.5t-104 20.5h-29v164h24q53 0 85 19.5t32 62.5q0 35 -22.5 51t-53.5 16q-39 0 -65.5 -18.5t-26.5 -63.5h-235q0 121 91 201t247 80q88 0 160.5 -26.5t115.5 -79t43 -125.5q0 -70 -38 -114t-79 -69v-2 q74 -25 107 -75t33 -121q0 -129 -92 -195.5t-248 -66.5q-174 0 -269.5 82.5t-95.5 238.5zM372 0l928 1464h287l-928 -1464h-287zM1102 166v246l367 419h247v-469h123v-196h-123v-166h-247v166h-367zM1276 362h193v211z" />
<glyph unicode="&#xbf;" horiz-adv-x="1138" d="M49 102q0 123 58.5 204t164.5 140q72 41 115 75t62.5 81t19.5 121h270q0 -94 -6 -153.5t-24.5 -98.5t-57.5 -75t-104 -83q-84 -61 -117 -99t-33 -103q0 -47 33 -86t119 -39q96 0 144 61.5t48 175.5h349q0 -143 -60.5 -261t-183.5 -187.5t-307 -69.5q-141 0 -252 50 t-174.5 139.5t-63.5 207.5zM446 891v311h312v-311h-312z" />
<glyph unicode="&#xc0;" horiz-adv-x="1525" d="M18 0l557 1464h371l561 -1464h-403l-94 305h-502l-94 -305h-396zM442 1905h328l109 -311h-246zM592 586h336l-166 540h-4z" />
<glyph unicode="&#xc1;" horiz-adv-x="1525" d="M18 0l557 1464h371l561 -1464h-403l-94 305h-502l-94 -305h-396zM592 586h336l-166 540h-4zM637 1590l108 311h369l-231 -311h-246z" />
<glyph unicode="&#xc2;" horiz-adv-x="1525" d="M18 0l557 1464h371l561 -1464h-403l-94 305h-502l-94 -305h-396zM381 1590l219 311h320l219 -311h-285l-92 165h-4l-92 -165h-285zM592 586h336l-166 540h-4z" />
<glyph unicode="&#xc3;" horiz-adv-x="1525" d="M18 0l557 1464h371l561 -1464h-403l-94 305h-502l-94 -305h-396zM393 1559q0 158 47 229.5t135 71.5q55 0 103.5 -20.5t91.5 -41t84 -20.5q43 0 57 25.5t14 56.5h177q0 -160 -47.5 -230.5t-135.5 -70.5q-55 0 -103 20.5t-91 40t-84 19.5q-43 0 -56.5 -26t-13.5 -54h-178z M592 586h336l-166 540h-4z" />
<glyph unicode="&#xc4;" horiz-adv-x="1525" d="M18 0l557 1464h371l561 -1464h-403l-94 305h-502l-94 -305h-396zM383 1590v290h328v-290h-328zM592 586h336l-166 540h-4zM809 1590v290h328v-290h-328z" />
<glyph unicode="&#xc5;" horiz-adv-x="1525" d="M18 0l557 1464h371l561 -1464h-403l-94 305h-502l-94 -305h-396zM535 1741q0 102 67.5 161.5t157.5 59.5q92 0 158.5 -59.5t66.5 -161.5t-66.5 -161.5t-158.5 -59.5q-90 0 -157.5 59.5t-67.5 161.5zM592 586h336l-166 540h-4zM674 1741q0 -45 24.5 -69.5t61.5 -24.5 q88 0 88 94t-88 94q-37 0 -61.5 -23.5t-24.5 -70.5z" />
<glyph unicode="&#xc6;" horiz-adv-x="2099" d="M18 -4l553 1468h1444v-301h-741v-260h639v-301h-639v-301h754v-301h-1123v301h-424l-94 -305h-369zM565 582h338v581h-149z" />
<glyph unicode="&#xc7;" horiz-adv-x="1460" d="M61 727q0 225 81 398t240 272.5t390 99.5q201 0 338 -73.5t215 -203.5t94 -300h-377q-12 80 -42.5 142t-88 98t-155.5 36q-121 0 -190.5 -58.5t-98.5 -163t-29 -241.5t29 -242.5t98.5 -164t190.5 -58.5q98 0 156.5 36t88 99.5t41.5 145.5h377q-16 -168 -95 -299 t-219 -207t-343 -76q-231 0 -388 99.5t-235 271.5t-78 389zM512 -338l62 72q29 -14 60.5 -22.5t68.5 -8.5t65.5 13.5t28.5 45.5q0 55 -70 56q-20 0 -39.5 -4t-35.5 -11l-49 70l120 127h148l-80 -98v-4q84 10 151.5 -24t67.5 -114t-80 -123t-188 -43q-72 0 -129.5 19.5 t-100.5 48.5z" />
<glyph unicode="&#xc8;" horiz-adv-x="1316" d="M123 0v1464h1110v-301h-741v-260h638v-301h-638v-301h753v-301h-1122zM366 1905h328l109 -311h-246z" />
<glyph unicode="&#xc9;" horiz-adv-x="1316" d="M123 0v1464h1110v-301h-741v-260h638v-301h-638v-301h753v-301h-1122zM561 1590l108 311h369l-231 -311h-246z" />
<glyph unicode="&#xca;" horiz-adv-x="1316" d="M123 0v1464h1110v-301h-741v-260h638v-301h-638v-301h753v-301h-1122zM305 1590l219 311h320l219 -311h-285l-92 165h-4l-92 -165h-285z" />
<glyph unicode="&#xcb;" horiz-adv-x="1316" d="M123 0v1464h1110v-301h-741v-260h638v-301h-638v-301h753v-301h-1122zM307 1590v290h328v-290h-328zM733 1590v290h328v-290h-328z" />
<glyph unicode="&#xcc;" horiz-adv-x="614" d="M-11 1905h328l109 -311h-246zM123 0v1464h369v-1464h-369z" />
<glyph unicode="&#xcd;" horiz-adv-x="614" d="M123 0v1464h369v-1464h-369zM184 1590l108 311h369l-231 -311h-246z" />
<glyph unicode="&#xce;" horiz-adv-x="614" d="M-72 1590l219 311h320l219 -311h-285l-92 165h-4l-92 -165h-285zM123 0v1464h369v-1464h-369z" />
<glyph unicode="&#xcf;" horiz-adv-x="614" d="M-70 1590v290h328v-290h-328zM123 0v1464h369v-1464h-369zM356 1590v290h328v-290h-328z" />
<glyph unicode="&#xd0;" horiz-adv-x="1486" d="M4 666v184h119v614h649q305 0 479 -189.5t174 -543.5q0 -352 -163.5 -541.5t-468.5 -189.5h-670v666h-119zM492 301h235q172 0 247 115.5t75 314.5q0 201 -75 316.5t-247 115.5h-235v-313h286v-184h-286v-365z" />
<glyph unicode="&#xd1;" horiz-adv-x="1499" d="M123 0v1464h369l512 -870h4v870h368v-1464h-368l-512 870h-4v-870h-369zM383 1559q0 158 47 229.5t135 71.5q55 0 103.5 -20.5t91.5 -41t84 -20.5q43 0 57 25.5t14 56.5h177q0 -160 -47.5 -230.5t-135.5 -70.5q-55 0 -103 20.5t-91 40t-84 19.5q-43 0 -56.5 -26 t-13.5 -54h-178z" />
<glyph unicode="&#xd2;" horiz-adv-x="1572" d="M61 733q0 221 84 393t247 271.5t394 99.5t393 -99.5t247 -271.5t85 -393t-85 -394t-247 -272.5t-393 -99.5t-394 99.5t-247 272.5t-84 394zM438 733q0 -127 31 -233.5t107.5 -169t209.5 -62.5t209 62.5t108 169t32 233.5t-32 232.5t-107.5 168t-209.5 62.5 q-133 0 -209.5 -62.5t-107.5 -168t-31 -232.5zM469 1905h328l109 -311h-246z" />
<glyph unicode="&#xd3;" horiz-adv-x="1572" d="M61 733q0 221 84 393t247 271.5t394 99.5t393 -99.5t247 -271.5t85 -393t-85 -394t-247 -272.5t-393 -99.5t-394 99.5t-247 272.5t-84 394zM438 733q0 -127 31 -233.5t107.5 -169t209.5 -62.5t209 62.5t108 169t32 233.5t-32 232.5t-107.5 168t-209.5 62.5 q-133 0 -209.5 -62.5t-107.5 -168t-31 -232.5zM664 1590l108 311h369l-231 -311h-246z" />
<glyph unicode="&#xd4;" horiz-adv-x="1572" d="M61 733q0 221 84 393t247 271.5t394 99.5t393 -99.5t247 -271.5t85 -393t-85 -394t-247 -272.5t-393 -99.5t-394 99.5t-247 272.5t-84 394zM408 1590l219 311h320l219 -311h-285l-92 165h-4l-92 -165h-285zM438 733q0 -127 31 -233.5t107.5 -169t209.5 -62.5t209 62.5 t108 169t32 233.5t-32 232.5t-107.5 168t-209.5 62.5q-133 0 -209.5 -62.5t-107.5 -168t-31 -232.5z" />
<glyph unicode="&#xd5;" horiz-adv-x="1572" d="M61 733q0 221 84 393t247 271.5t394 99.5t393 -99.5t247 -271.5t85 -393t-85 -394t-247 -272.5t-393 -99.5t-394 99.5t-247 272.5t-84 394zM420 1559q0 158 47 229.5t135 71.5q55 0 103.5 -20.5t91.5 -41t84 -20.5q43 0 57 25.5t14 56.5h177q0 -160 -47.5 -230.5 t-135.5 -70.5q-55 0 -103 20.5t-91 40t-84 19.5q-43 0 -56.5 -26t-13.5 -54h-178zM438 733q0 -127 31 -233.5t107.5 -169t209.5 -62.5t209 62.5t108 169t32 233.5t-32 232.5t-107.5 168t-209.5 62.5q-133 0 -209.5 -62.5t-107.5 -168t-31 -232.5z" />
<glyph unicode="&#xd6;" horiz-adv-x="1572" d="M61 733q0 221 84 393t247 271.5t394 99.5t393 -99.5t247 -271.5t85 -393t-85 -394t-247 -272.5t-393 -99.5t-394 99.5t-247 272.5t-84 394zM409 1590v290h328v-290h-328zM438 733q0 -127 31 -233.5t107.5 -169t209.5 -62.5t209 62.5t108 169t32 233.5t-32 232.5 t-107.5 168t-209.5 62.5q-133 0 -209.5 -62.5t-107.5 -168t-31 -232.5zM835 1590v290h328v-290h-328z" />
<glyph unicode="&#xd7;" horiz-adv-x="1200" d="M106 379l295 295l-295 293l199 198l295 -295l295 295l199 -198l-295 -293l295 -295l-199 -199l-295 295l-295 -295z" />
<glyph unicode="&#xd8;" horiz-adv-x="1581" d="M61 90l148 150q-70 96 -106.5 223t-36.5 270q0 221 83.5 393t246.5 271.5t395 99.5q156 0 280.5 -47t214.5 -131l146 145l88 -86l-152 -151q147 -201 148 -494q0 -221 -85 -394t-247 -272.5t-393 -99.5q-156 0 -283 47t-217 131l-144 -143zM442 733q0 -63 7.5 -121.5 t21.5 -109.5l578 579q-39 53 -103.5 84t-154.5 31q-133 0 -210 -62.5t-108 -168t-31 -232.5zM528 385q41 -53 106 -85t157 -32q133 0 208.5 62.5t107.5 169t32 233.5q0 63 -7.5 121.5t-23.5 110.5z" />
<glyph unicode="&#xd9;" horiz-adv-x="1449" d="M113 528v936h368v-936q0 -143 61.5 -201.5t182.5 -58.5t182.5 58.5t61.5 201.5v936h368v-936q0 -272 -140 -416.5t-472 -144.5t-472 144.5t-140 416.5zM407 1905h328l109 -311h-246z" />
<glyph unicode="&#xda;" horiz-adv-x="1449" d="M113 528v936h368v-936q0 -143 61.5 -201.5t182.5 -58.5t182.5 58.5t61.5 201.5v936h368v-936q0 -272 -140 -416.5t-472 -144.5t-472 144.5t-140 416.5zM602 1590l108 311h369l-231 -311h-246z" />
<glyph unicode="&#xdb;" horiz-adv-x="1449" d="M113 528v936h368v-936q0 -143 61.5 -201.5t182.5 -58.5t182.5 58.5t61.5 201.5v936h368v-936q0 -272 -140 -416.5t-472 -144.5t-472 144.5t-140 416.5zM346 1590l219 311h320l219 -311h-285l-92 165h-4l-92 -165h-285z" />
<glyph unicode="&#xdc;" horiz-adv-x="1449" d="M113 528v936h368v-936q0 -143 61.5 -201.5t182.5 -58.5t182.5 58.5t61.5 201.5v936h368v-936q0 -272 -140 -416.5t-472 -144.5t-472 144.5t-140 416.5zM348 1590v290h328v-290h-328zM774 1590v290h328v-290h-328z" />
<glyph unicode="&#xdd;" horiz-adv-x="1394" d="M16 1464h398l284 -622h4l287 622h389l-493 -923v-541h-369v541zM580 1590l108 311h369l-231 -311h-246z" />
<glyph unicode="&#xde;" horiz-adv-x="1376" d="M123 0v1464h369v-204h342q229 0 362 -118t133 -349q0 -229 -133 -348t-362 -119h-342v-326h-369zM492 627h264q96 0 150.5 36.5t54.5 129.5q0 92 -54.5 128.5t-150.5 36.5h-264v-331z" />
<glyph unicode="&#xdf;" horiz-adv-x="1202" d="M82 0v977q0 256 128 388t376 132q170 0 276.5 -55.5t155.5 -144.5t49 -191q0 -117 -54.5 -189.5t-129.5 -105.5v-4q131 -41 198.5 -151.5t67.5 -256.5q0 -139 -60.5 -236t-162 -146.5t-226.5 -49.5q-96 0 -188 33v246q29 -4 53.5 -7t48.5 -3q82 0 125 31.5t58.5 80.5 t15.5 103q0 111 -55.5 181t-194.5 70h-51v205h43q84 0 130 48.5t46 131.5q0 76 -39 120t-117 44q-74 0 -119.5 -53t-45.5 -205v-993h-328z" />
<glyph unicode="&#xe0;" horiz-adv-x="1146" d="M41 274q0 109 54.5 177.5t145.5 108.5t201 63q57 12 122 25.5t110 41t45 78.5q0 43 -34 68.5t-105 25.5q-90 0 -134.5 -37t-52.5 -114h-311q6 100 59.5 185t165 136t287.5 51q213 0 327.5 -97t114.5 -339v-405q0 -41 7.5 -60.5t31.5 -19.5h12.5t14.5 2v-156 q-49 -8 -97.5 -13t-82.5 -5q-98 0 -141.5 35.5t-55.5 101.5h-4q-55 -70 -143 -115t-203 -45q-154 0 -244 84t-90 223zM260 1489h328l109 -311h-246zM377 309q0 -59 36 -87.5t99 -28.5q98 0 152.5 70.5t54.5 160.5v88q-33 -12 -73 -22.5t-105 -26.5q-90 -20 -127 -59t-37 -95 z" />
<glyph unicode="&#xe1;" horiz-adv-x="1146" d="M41 274q0 109 54.5 177.5t145.5 108.5t201 63q57 12 122 25.5t110 41t45 78.5q0 43 -34 68.5t-105 25.5q-90 0 -134.5 -37t-52.5 -114h-311q6 100 59.5 185t165 136t287.5 51q213 0 327.5 -97t114.5 -339v-405q0 -41 7.5 -60.5t31.5 -19.5h12.5t14.5 2v-156 q-49 -8 -97.5 -13t-82.5 -5q-98 0 -141.5 35.5t-55.5 101.5h-4q-55 -70 -143 -115t-203 -45q-154 0 -244 84t-90 223zM377 309q0 -59 36 -87.5t99 -28.5q98 0 152.5 70.5t54.5 160.5v88q-33 -12 -73 -22.5t-105 -26.5q-90 -20 -127 -59t-37 -95zM455 1174l108 311h369 l-231 -311h-246z" />
<glyph unicode="&#xe2;" horiz-adv-x="1146" d="M41 274q0 109 54.5 177.5t145.5 108.5t201 63q57 12 122 25.5t110 41t45 78.5q0 43 -34 68.5t-105 25.5q-90 0 -134.5 -37t-52.5 -114h-311q6 100 59.5 185t165 136t287.5 51q213 0 327.5 -97t114.5 -339v-405q0 -41 7.5 -60.5t31.5 -19.5h12.5t14.5 2v-156 q-49 -8 -97.5 -13t-82.5 -5q-98 0 -141.5 35.5t-55.5 101.5h-4q-55 -70 -143 -115t-203 -45q-154 0 -244 84t-90 223zM199 1174l219 311h320l219 -311h-285l-92 165h-4l-92 -165h-285zM377 309q0 -59 36 -87.5t99 -28.5q98 0 152.5 70.5t54.5 160.5v88q-33 -12 -73 -22.5 t-105 -26.5q-90 -20 -127 -59t-37 -95z" />
<glyph unicode="&#xe3;" horiz-adv-x="1146" d="M41 274q0 109 54.5 177.5t145.5 108.5t201 63q57 12 122 25.5t110 41t45 78.5q0 43 -34 68.5t-105 25.5q-90 0 -134.5 -37t-52.5 -114h-311q6 100 59.5 185t165 136t287.5 51q213 0 327.5 -97t114.5 -339v-405q0 -41 7.5 -60.5t31.5 -19.5h12.5t14.5 2v-156 q-49 -8 -97.5 -13t-82.5 -5q-98 0 -141.5 35.5t-55.5 101.5h-4q-55 -70 -143 -115t-203 -45q-154 0 -244 84t-90 223zM211 1143q0 158 47 229.5t135 71.5q55 0 103.5 -20.5t91.5 -41t84 -20.5q43 0 57 25.5t14 56.5h177q0 -160 -47.5 -230.5t-135.5 -70.5q-55 0 -103 20.5 t-91 40t-84 19.5q-43 0 -56.5 -26t-13.5 -54h-178zM377 309q0 -59 36 -87.5t99 -28.5q98 0 152.5 70.5t54.5 160.5v88q-33 -12 -73 -22.5t-105 -26.5q-90 -20 -127 -59t-37 -95z" />
<glyph unicode="&#xe4;" horiz-adv-x="1146" d="M41 274q0 109 54.5 177.5t145.5 108.5t201 63q57 12 122 25.5t110 41t45 78.5q0 43 -34 68.5t-105 25.5q-90 0 -134.5 -37t-52.5 -114h-311q6 100 59.5 185t165 136t287.5 51q213 0 327.5 -97t114.5 -339v-405q0 -41 7.5 -60.5t31.5 -19.5h12.5t14.5 2v-156 q-49 -8 -97.5 -13t-82.5 -5q-98 0 -141.5 35.5t-55.5 101.5h-4q-55 -70 -143 -115t-203 -45q-154 0 -244 84t-90 223zM200 1174v290h328v-290h-328zM377 309q0 -59 36 -87.5t99 -28.5q98 0 152.5 70.5t54.5 160.5v88q-33 -12 -73 -22.5t-105 -26.5q-90 -20 -127 -59t-37 -95 zM626 1174v290h328v-290h-328z" />
<glyph unicode="&#xe5;" horiz-adv-x="1146" d="M41 274q0 109 54.5 177.5t145.5 108.5t201 63q57 12 122 25.5t110 41t45 78.5q0 43 -34 68.5t-105 25.5q-90 0 -134.5 -37t-52.5 -114h-311q6 100 59.5 185t165 136t287.5 51q213 0 327.5 -97t114.5 -339v-405q0 -41 7.5 -60.5t31.5 -19.5h12.5t14.5 2v-156 q-49 -8 -97.5 -13t-82.5 -5q-98 0 -141.5 35.5t-55.5 101.5h-4q-55 -70 -143 -115t-203 -45q-154 0 -244 84t-90 223zM353 1325q0 102 67.5 161.5t157.5 59.5q92 0 158.5 -59.5t66.5 -161.5t-66.5 -161.5t-158.5 -59.5q-90 0 -157.5 59.5t-67.5 161.5zM377 309 q0 -59 36 -87.5t99 -28.5q98 0 152.5 70.5t54.5 160.5v88q-33 -12 -73 -22.5t-105 -26.5q-90 -20 -127 -59t-37 -95zM492 1325q0 -45 24.5 -69.5t61.5 -24.5q88 0 88 94t-88 94q-37 0 -61.5 -23.5t-24.5 -70.5z" />
<glyph unicode="&#xe6;" horiz-adv-x="1837" d="M41 274q0 109 54.5 177.5t145.5 108.5t201 63q57 12 122 25.5t110 41t45 78.5q0 43 -34 68.5t-105 25.5q-90 0 -134.5 -37t-52.5 -114h-311q6 102 59.5 186t162 135t274.5 51q109 0 192.5 -24.5t138.5 -81.5q66 51 152 78.5t190 27.5q268 0 402.5 -153.5t134.5 -444.5 v-49h-754q2 -109 67.5 -167t158.5 -58q88 0 130 34t56 72h334q-45 -160 -176 -256t-353 -96q-137 0 -241.5 47t-175.5 129q-86 -96 -186.5 -135t-221.5 -39q-197 0 -291 86t-94 221zM377 315q0 -63 36 -92.5t95 -29.5q100 0 150.5 65.5t50.5 151.5v59q0 10 -1 20.5t-1 20.5 q-57 -23 -166 -47q-90 -20 -127 -59t-37 -89zM1036 639h422q0 102 -55.5 154.5t-151.5 52.5q-94 0 -151.5 -52.5t-63.5 -154.5z" />
<glyph unicode="&#xe7;" horiz-adv-x="1128" d="M45 524q0 164 65.5 290t185.5 197.5t282 71.5q152 0 262 -55t174.5 -151.5t77.5 -219.5h-330q-4 43 -21.5 84t-54.5 69t-102 28q-100 0 -151.5 -83t-51.5 -231q0 -147 50 -230t153 -83q96 0 133 56.5t45 127.5h330q-8 -125 -72 -222t-173.5 -152.5t-260.5 -55.5 q-166 0 -287 72t-187.5 197.5t-66.5 289.5zM317 -338l62 72q29 -14 60.5 -22.5t68.5 -8.5t65.5 13.5t28.5 45.5q0 55 -70 56q-20 0 -39.5 -4t-35.5 -11l-49 70l120 127h148l-80 -98v-4q84 10 151.5 -24t67.5 -114t-80 -123t-188 -43q-72 0 -129.5 19.5t-100.5 48.5z" />
<glyph unicode="&#xe8;" d="M45 524q0 154 62.5 281t184.5 202.5t298 75.5q268 0 402 -153.5t134 -444.5v-49h-753q2 -109 67.5 -167t157.5 -58q88 0 130 34t56 72h334q-45 -160 -176 -256t-352 -96q-170 0 -292 72t-187.5 197.5t-65.5 289.5zM268 1489h328l109 -311h-246zM375 639h422 q0 102 -55.5 154.5t-151.5 52.5q-94 0 -151.5 -52.5t-63.5 -154.5z" />
<glyph unicode="&#xe9;" d="M45 524q0 154 62.5 281t184.5 202.5t298 75.5q268 0 402 -153.5t134 -444.5v-49h-753q2 -109 67.5 -167t157.5 -58q88 0 130 34t56 72h334q-45 -160 -176 -256t-352 -96q-170 0 -292 72t-187.5 197.5t-65.5 289.5zM375 639h422q0 102 -55.5 154.5t-151.5 52.5 q-94 0 -151.5 -52.5t-63.5 -154.5zM463 1174l108 311h369l-231 -311h-246z" />
<glyph unicode="&#xea;" d="M45 524q0 154 62.5 281t184.5 202.5t298 75.5q268 0 402 -153.5t134 -444.5v-49h-753q2 -109 67.5 -167t157.5 -58q88 0 130 34t56 72h334q-45 -160 -176 -256t-352 -96q-170 0 -292 72t-187.5 197.5t-65.5 289.5zM207 1174l219 311h320l219 -311h-285l-92 165h-4 l-92 -165h-285zM375 639h422q0 102 -55.5 154.5t-151.5 52.5q-94 0 -151.5 -52.5t-63.5 -154.5z" />
<glyph unicode="&#xeb;" d="M45 524q0 154 62.5 281t184.5 202.5t298 75.5q268 0 402 -153.5t134 -444.5v-49h-753q2 -109 67.5 -167t157.5 -58q88 0 130 34t56 72h334q-45 -160 -176 -256t-352 -96q-170 0 -292 72t-187.5 197.5t-65.5 289.5zM209 1174v290h328v-290h-328zM375 639h422 q0 102 -55.5 154.5t-151.5 52.5q-94 0 -151.5 -52.5t-63.5 -154.5zM635 1174v290h328v-290h-328z" />
<glyph unicode="&#xec;" horiz-adv-x="491" d="M-72 1489h328l109 -311h-246zM82 0v1049h328v-1049h-328z" />
<glyph unicode="&#xed;" horiz-adv-x="491" d="M82 0v1049h328v-1049h-328zM123 1174l108 311h369l-231 -311h-246z" />
<glyph unicode="&#xee;" horiz-adv-x="491" d="M-133 1174l219 311h320l219 -311h-285l-92 165h-4l-92 -165h-285zM82 0v1049h328v-1049h-328z" />
<glyph unicode="&#xef;" horiz-adv-x="491" d="M-131 1174v290h328v-290h-328zM82 0v1049h328v-1049h-328zM295 1174v290h328v-290h-328z" />
<glyph unicode="&#xf0;" horiz-adv-x="1218" d="M45 526q0 176 64.5 300t172 189.5t232.5 65.5q90 0 152.5 -24.5t103.5 -63.5q-37 117 -133 224l-266 -72l-33 119l190 51q-49 37 -106 74.5t-127 74.5h410q51 -27 108 -73l215 57l33 -119l-143 -39q96 -106 168.5 -268t72.5 -375q0 -131 -30.5 -253t-97 -218t-175 -152.5 t-264.5 -56.5q-174 0 -297 69.5t-186.5 195.5t-63.5 294zM373 526q0 -147 59.5 -222t159.5 -75t159.5 75t59.5 222t-59.5 221t-159.5 74t-159.5 -73.5t-59.5 -221.5z" />
<glyph unicode="&#xf1;" d="M82 0v1049h328v-152h4q41 72 122.5 128t221.5 56q152 0 246 -96t94 -276v-709h-328v604q0 119 -41 165t-123 46q-94 0 -145 -50t-51 -159v-606h-328zM285 1143q0 158 47 229.5t135 71.5q55 0 103.5 -20.5t91.5 -41t84 -20.5q43 0 57 25.5t14 56.5h177 q0 -160 -47.5 -230.5t-135.5 -70.5q-55 0 -103 20.5t-91 40t-84 19.5q-43 0 -56.5 -26t-13.5 -54h-178z" />
<glyph unicode="&#xf2;" horiz-adv-x="1210" d="M45 522q0 166 67.5 292t193.5 197.5t302 71.5q174 0 298 -69.5t191.5 -194.5t67.5 -291t-67.5 -292.5t-193.5 -198.5t-302 -72q-172 0 -297 70.5t-192.5 195.5t-67.5 291zM288 1489h328l109 -311h-246zM377 524q0 -152 59 -232.5t170 -80.5q109 0 168.5 81t59.5 232 q0 152 -59.5 233t-168.5 81q-111 0 -170 -81t-59 -233z" />
<glyph unicode="&#xf3;" horiz-adv-x="1210" d="M45 522q0 166 67.5 292t193.5 197.5t302 71.5q174 0 298 -69.5t191.5 -194.5t67.5 -291t-67.5 -292.5t-193.5 -198.5t-302 -72q-172 0 -297 70.5t-192.5 195.5t-67.5 291zM377 524q0 -152 59 -232.5t170 -80.5q109 0 168.5 81t59.5 232q0 152 -59.5 233t-168.5 81 q-111 0 -170 -81t-59 -233zM483 1174l108 311h369l-231 -311h-246z" />
<glyph unicode="&#xf4;" horiz-adv-x="1210" d="M45 522q0 166 67.5 292t193.5 197.5t302 71.5q174 0 298 -69.5t191.5 -194.5t67.5 -291t-67.5 -292.5t-193.5 -198.5t-302 -72q-172 0 -297 70.5t-192.5 195.5t-67.5 291zM227 1174l219 311h320l219 -311h-285l-92 165h-4l-92 -165h-285zM377 524q0 -152 59 -232.5 t170 -80.5q109 0 168.5 81t59.5 232q0 152 -59.5 233t-168.5 81q-111 0 -170 -81t-59 -233z" />
<glyph unicode="&#xf5;" horiz-adv-x="1210" d="M45 522q0 166 67.5 292t193.5 197.5t302 71.5q174 0 298 -69.5t191.5 -194.5t67.5 -291t-67.5 -292.5t-193.5 -198.5t-302 -72q-172 0 -297 70.5t-192.5 195.5t-67.5 291zM240 1143q0 158 47 229.5t135 71.5q55 0 103.5 -20.5t91.5 -41t84 -20.5q43 0 57 25.5t14 56.5 h177q0 -160 -47.5 -230.5t-135.5 -70.5q-55 0 -103 20.5t-91 40t-84 19.5q-43 0 -56.5 -26t-13.5 -54h-178zM377 524q0 -152 59 -232.5t170 -80.5q109 0 168.5 81t59.5 232q0 152 -59.5 233t-168.5 81q-111 0 -170 -81t-59 -233z" />
<glyph unicode="&#xf6;" horiz-adv-x="1210" d="M45 522q0 166 67.5 292t193.5 197.5t302 71.5q174 0 298 -69.5t191.5 -194.5t67.5 -291t-67.5 -292.5t-193.5 -198.5t-302 -72q-172 0 -297 70.5t-192.5 195.5t-67.5 291zM229 1174v290h328v-290h-328zM377 524q0 -152 59 -232.5t170 -80.5q109 0 168.5 81t59.5 232 q0 152 -59.5 233t-168.5 81q-111 0 -170 -81t-59 -233zM655 1174v290h328v-290h-328z" />
<glyph unicode="&#xf7;" horiz-adv-x="1200" d="M102 532v283h996v-283h-996zM444 109v311h312v-311h-312zM444 926v311h312v-311h-312z" />
<glyph unicode="&#xf8;" horiz-adv-x="1210" d="M45 522q0 166 67.5 292t193.5 197.5t302 71.5q217 0 359 -110l100 100l88 -86l-100 -100q111 -145 110 -359q0 -166 -67.5 -292.5t-193.5 -198.5t-302 -72q-109 0 -199 29t-159 80l-101 -101l-86 88l101 101q-113 143 -113 360zM377 524q0 -78 14 -129l373 375 q-55 68 -158 68q-111 0 -170 -81t-59 -233zM446 279q60 -68 160 -68q109 0 168.5 81t59.5 232q0 35 -3.5 68t-11.5 59z" />
<glyph unicode="&#xf9;" d="M78 340v709h328v-605q0 -119 40.5 -165t122.5 -46q94 0 145.5 50.5t51.5 158.5v607h328v-1049h-328v152h-4q-41 -72 -123 -128.5t-221 -56.5q-152 0 -246 96.5t-94 276.5zM262 1489h328l109 -311h-246z" />
<glyph unicode="&#xfa;" d="M78 340v709h328v-605q0 -119 40.5 -165t122.5 -46q94 0 145.5 50.5t51.5 158.5v607h328v-1049h-328v152h-4q-41 -72 -123 -128.5t-221 -56.5q-152 0 -246 96.5t-94 276.5zM457 1174l108 311h369l-231 -311h-246z" />
<glyph unicode="&#xfb;" d="M78 340v709h328v-605q0 -119 40.5 -165t122.5 -46q94 0 145.5 50.5t51.5 158.5v607h328v-1049h-328v152h-4q-41 -72 -123 -128.5t-221 -56.5q-152 0 -246 96.5t-94 276.5zM201 1174l219 311h320l219 -311h-285l-92 165h-4l-92 -165h-285z" />
<glyph unicode="&#xfc;" d="M78 340v709h328v-605q0 -119 40.5 -165t122.5 -46q94 0 145.5 50.5t51.5 158.5v607h328v-1049h-328v152h-4q-41 -72 -123 -128.5t-221 -56.5q-152 0 -246 96.5t-94 276.5zM202 1174v290h328v-290h-328zM628 1174v290h328v-290h-328z" />
<glyph unicode="&#xfd;" horiz-adv-x="1157" d="M14 1049h338l246 -691h4l225 691h324l-383 -1051q-43 -119 -97.5 -200t-131 -120.5t-193.5 -39.5q-53 0 -98 5t-98 15v250q27 -2 49 -4t49 -2q33 0 69.5 5t68.5 28.5t46 78.5zM461 1174l108 311h369l-231 -311h-246z" />
<glyph unicode="&#xfe;" horiz-adv-x="1218" d="M82 -362v1826h328v-520h4q20 29 63 60.5t103.5 54t136.5 22.5q139 0 241.5 -67.5t159 -192.5t56.5 -297t-56.5 -297t-159 -192.5t-241.5 -67.5q-76 0 -136.5 22.5t-103.5 55t-63 59.5h-4v-466h-328zM416 524q0 -154 55 -232.5t156 -78.5q100 0 155.5 79t55.5 232 q0 154 -55.5 233t-155.5 79t-155.5 -79t-55.5 -233z" />
<glyph unicode="&#xff;" horiz-adv-x="1157" d="M14 1049h338l246 -691h4l225 691h324l-383 -1051q-43 -119 -97.5 -200t-131 -120.5t-193.5 -39.5q-53 0 -98 5t-98 15v250q27 -2 49 -4t49 -2q33 0 69.5 5t68.5 28.5t46 78.5zM207 1174v290h328v-290h-328zM633 1174v290h328v-290h-328z" />
<glyph unicode="&#x152;" horiz-adv-x="2338" d="M61 733q0 221 82 393t230.5 271.5t351.5 99.5q145 0 247.5 -55.5t172.5 -141.5v164h1110v-301h-742v-260h639v-301h-639v-301h754v-301h-1122v164q-70 -86 -172.5 -141.5t-247.5 -55.5q-203 0 -351.5 99.5t-230.5 272.5t-82 394zM438 733q0 -127 31 -233.5t107.5 -169 t209.5 -62.5q113 0 193 62.5t122 169t42 233.5t-42 232.5t-122 168t-193 62.5q-133 0 -209.5 -62.5t-107.5 -168t-31 -232.5z" />
<glyph unicode="&#x153;" horiz-adv-x="1966" d="M45 522q0 166 67.5 292t193.5 197.5t302 71.5q123 0 222.5 -36.5t170.5 -102.5q68 66 164.5 102.5t214.5 36.5q268 0 402.5 -153.5t134.5 -444.5v-49h-754q2 -109 67.5 -167t158.5 -58q88 0 130 34t56 72h334q-45 -160 -176 -256t-353 -96q-119 0 -216 37t-167 102 q-72 -66 -171 -102.5t-224 -36.5q-172 0 -297 70.5t-192.5 195.5t-67.5 291zM377 524q0 -152 59 -232.5t170 -80.5q109 0 168.5 81t59.5 232q0 152 -59.5 233t-168.5 81q-111 0 -170 -81t-59 -233zM1165 639h422q0 102 -55.5 154.5t-151.5 52.5q-94 0 -151.5 -52.5 t-63.5 -154.5z" />
<glyph unicode="&#x178;" horiz-adv-x="1394" d="M16 1464h398l284 -622h4l287 622h389l-493 -923v-541h-369v541zM325 1590v290h328v-290h-328zM751 1590v290h328v-290h-328z" />
<glyph unicode="&#x2c6;" horiz-adv-x="921" d="M82 1174l219 311h320l219 -311h-285l-92 165h-4l-92 -165h-285z" />
<glyph unicode="&#x2dc;" horiz-adv-x="872" d="M82 1143q0 158 47 229.5t135 71.5q55 0 103.5 -20.5t91.5 -41t84 -20.5q43 0 57 25.5t14 56.5h177q0 -160 -47.5 -230.5t-135.5 -70.5q-55 0 -103 20.5t-91 40t-84 19.5q-43 0 -56.5 -26t-13.5 -54h-178z" />
<glyph unicode="&#x2000;" horiz-adv-x="981" />
<glyph unicode="&#x2001;" horiz-adv-x="1962" />
<glyph unicode="&#x2002;" horiz-adv-x="981" />
<glyph unicode="&#x2003;" horiz-adv-x="1962" />
<glyph unicode="&#x2004;" horiz-adv-x="654" />
<glyph unicode="&#x2005;" horiz-adv-x="490" />
<glyph unicode="&#x2006;" horiz-adv-x="327" />
<glyph unicode="&#x2007;" horiz-adv-x="327" />
<glyph unicode="&#x2008;" horiz-adv-x="245" />
<glyph unicode="&#x2009;" horiz-adv-x="392" />
<glyph unicode="&#x200a;" horiz-adv-x="109" />
<glyph unicode="&#x2010;" horiz-adv-x="679" d="M61 377v280h557v-280h-557z" />
<glyph unicode="&#x2011;" horiz-adv-x="679" d="M61 377v280h557v-280h-557z" />
<glyph unicode="&#x2012;" horiz-adv-x="679" d="M61 377v280h557v-280h-557z" />
<glyph unicode="&#x2013;" horiz-adv-x="1146" d="M61 377v280h1024v-280h-1024z" />
<glyph unicode="&#x2014;" horiz-adv-x="2170" d="M61 377v280h2048v-280h-2048z" />
<glyph unicode="&#x2018;" horiz-adv-x="444" d="M72 811v311q0 139 80.5 230.5t230.5 111.5v-143q-63 -10 -105 -55t-42 -144h147v-311h-311z" />
<glyph unicode="&#x2019;" horiz-adv-x="444" d="M61 811v143q66 10 107 55.5t41 143.5h-148v311h312v-311q0 -137 -80 -228t-232 -114z" />
<glyph unicode="&#x201a;" horiz-adv-x="444" d="M61 0v311h312v-311q0 -137 -80 -228t-232 -114v143q66 10 107 55.5t41 143.5h-148z" />
<glyph unicode="&#x201c;" horiz-adv-x="854" d="M72 817v311q0 139 80.5 230.5t230.5 111.5v-143q-63 -10 -105 -55t-42 -144h147v-311h-311zM481 817v311q0 139 81 230.5t231 111.5v-143q-63 -10 -105.5 -55t-42.5 -144h148v-311h-312z" />
<glyph unicode="&#x201d;" horiz-adv-x="854" d="M61 811v143q66 10 107 55.5t41 143.5h-148v311h312v-311q0 -137 -80 -228t-232 -114zM471 811v143q66 10 107 55.5t41 143.5h-148v311h312v-311q0 -137 -80 -228t-232 -114z" />
<glyph unicode="&#x201e;" horiz-adv-x="854" d="M61 0v311h312v-311q0 -137 -80 -228t-232 -114v143q66 10 107 55.5t41 143.5h-148zM471 0v311h312v-311q0 -137 -80 -228t-232 -114v143q66 10 107 55.5t41 143.5h-148z" />
<glyph unicode="&#x2022;" horiz-adv-x="696" d="M61 320v573h574v-573h-574z" />
<glyph unicode="&#x2026;" horiz-adv-x="1302" d="M61 0v311h312v-311h-312zM495 0v311h312v-311h-312zM929 0v311h312v-311h-312z" />
<glyph unicode="&#x202f;" horiz-adv-x="392" />
<glyph unicode="&#x2039;" horiz-adv-x="571" d="M72 371v321l407 316v-320l-227 -153v-7l227 -153v-320z" />
<glyph unicode="&#x203a;" horiz-adv-x="571" d="M92 55v320l227 153v7l-227 153v320l408 -316v-321z" />
<glyph unicode="&#x205f;" horiz-adv-x="490" />
<glyph unicode="&#x20ac;" horiz-adv-x="1445" d="M82 500v137h96q-2 16 -2 32.5v32.5v18.5v16.5h-94v137h104q23 160 90.5 287t195.5 201t325 74q190 0 313 -70t185.5 -193.5t68.5 -283.5h-348q-8 121 -57.5 193.5t-170.5 72.5q-119 0 -177 -74.5t-76 -206.5h325v-137h-336v-16v-19v-32.5t2 -32.5h334v-137h-321 q23 -119 80 -185.5t169 -66.5q123 0 172.5 73.5t55.5 196.5h348q-6 -162 -67.5 -285.5t-185.5 -194.5t-314 -71t-316.5 69.5t-196 190.5t-94.5 273h-108z" />
<glyph unicode="&#x2122;" horiz-adv-x="1472" d="M49 1284v180h504v-180h-150v-385h-204v385h-150zM629 899v565h256l100 -319h4l103 319h258v-565h-189v346h-4l-104 -346h-133l-103 346h-4v-346h-184z" />
<glyph unicode="&#x25fc;" horiz-adv-x="1044" d="M0 0v1044h1044v-1044h-1044z" />
<glyph unicode="&#xfb01;" horiz-adv-x="1198" d="M29 803v246h141v73q0 193 78 277t246 84q86 0 186 -21v-231q-29 4 -45.5 5t-36.5 1q-43 0 -71.5 -19.5t-28.5 -103.5v-65h182v-246h-182v-803h-328v803h-141zM789 0v1049h328v-1049h-328zM789 1174v290h328v-290h-328z" />
<glyph unicode="&#xfb02;" horiz-adv-x="1198" d="M29 803v246h141v73q0 193 78 277t246 84q86 0 186 -21v-231q-29 4 -45.5 5t-36.5 1q-43 0 -71.5 -19.5t-28.5 -103.5v-65h182v-246h-182v-803h-328v803h-141zM789 0v1464h328v-1464h-328z" />
<glyph unicode="&#xfb03;" horiz-adv-x="1828" d="M29 803v246h141v73q0 193 78 277t246 84q86 0 186 -21v-231q-29 4 -45 5t-37 1q-43 0 -72 -19t-28 -104v-65h297v73q0 193 77 277q78 84 246 84q86 0 187 -21v-231q-29 4 -45 5t-37 1q-43 0 -72 -19t-29 -104v-65h183v-246h-183v-803h-327v803h-297v-803h-328v803h-141z M1419 0v1049h328v-1049h-328zM1419 1174v290h328v-290h-328z" />
</font>
</defs>
</svg>
